<svg width="60" height="41" viewBox="0 0 60 41" fill="none" xmlns="http://www.w3.org/2000/svg">
<path d="M8.36306 16.4612L22.768 4.97988C22.789 4.96327 22.8096 4.94617 22.83 4.92835C23.395 4.43925 24.188 4.58904 24.5979 5.26164C25.008 5.93498 24.8823 6.88067 24.3175 7.37002C23.4476 8.12402 23.255 9.57568 23.8874 10.6127C24.5199 11.6499 25.7379 11.8789 26.6076 11.1254C28.9086 9.13137 29.4207 5.2773 27.7492 2.5334C26.0849 -0.197011 22.8752 -0.814713 20.5756 1.14267L0.864851 16.853L0.864043 16.8537C0.343031 17.2703 0 17.9786 0 18.7827V37.9334C0 39.2153 0.871922 40.2546 1.94728 40.2546H24.4387C25.4053 40.2546 26.2257 39.4094 26.3653 38.2691L28.4702 21.104H31.5298L33.6347 38.2691C33.7745 39.4094 34.5949 40.2546 35.5613 40.2546H58.0527C59.1281 40.2546 60 39.2153 60 37.9334V18.7827C60 17.9788 59.657 17.2706 59.136 16.854L59.1351 16.8532L39.4246 1.14315C37.1244 -0.814954 33.9149 -0.19653 32.2508 2.53412C30.5795 5.27778 31.0916 9.13185 33.3926 11.1258C34.2623 11.8791 35.4801 11.6499 36.1128 10.6131C36.7452 9.57616 36.5526 8.12451 35.6827 7.3705C35.1179 6.88115 34.9922 5.93522 35.4023 5.26237C35.8122 4.58928 36.606 4.43973 37.1702 4.92883C37.1906 4.94641 37.2112 4.96375 37.2322 4.98037L51.6371 16.4617L8.36306 16.4612ZM22.7552 35.6119H3.89456V21.1037H24.5342L22.7552 35.6119ZM56.1056 35.6119H37.245L35.466 21.1037H56.1056V35.6119Z" fill="#C1AB65"/>
</svg>
