<svg width="60" height="47" viewBox="0 0 60 47" fill="none" xmlns="http://www.w3.org/2000/svg">
<path d="M57.1831 0H2.81675C1.26363 0 0 1.19386 0 2.6613V44.1463C0 45.6138 1.26363 46.8076 2.81675 46.8076H57.1831C58.7364 46.8076 60 45.6138 60 44.1463V2.6613C60 1.19386 58.7364 0 57.1831 0ZM57.3248 44.1463C57.3248 44.1712 57.2752 44.2319 57.1831 44.2319H2.81675C2.72484 44.2319 2.67516 44.1712 2.67516 44.1463V2.6613C2.67516 2.63646 2.72484 2.57575 2.81675 2.57575H57.1831C57.2752 2.57575 57.3248 2.63646 57.3248 2.6613V44.1463Z" fill="#C1AB65"/>
<path d="M11.2375 6.69824H6.05438C5.31565 6.69824 4.7168 7.27485 4.7168 7.98615C4.7168 8.69744 5.31565 9.27405 6.05438 9.27405H11.2375C11.9762 9.27405 12.5751 8.69744 12.5751 7.98615C12.5751 7.27485 11.9762 6.69824 11.2375 6.69824Z" fill="#C1AB65"/>
<path d="M19.7775 6.69824H14.5944C13.8557 6.69824 13.2568 7.27485 13.2568 7.98615C13.2568 8.69744 13.8557 9.27405 14.5944 9.27405H19.7775C20.5163 9.27405 21.1151 8.69744 21.1151 7.98615C21.1151 7.27485 20.5163 6.69824 19.7775 6.69824Z" fill="#C1AB65"/>
<path d="M23.1381 9.27405H28.3212C29.06 9.27405 29.6588 8.69744 29.6588 7.98615C29.6588 7.27485 29.06 6.69824 28.3212 6.69824H23.1381C22.3994 6.69824 21.8005 7.27485 21.8005 7.98615C21.8005 8.69744 22.3994 9.27405 23.1381 9.27405Z" fill="#C1AB65"/>
<path d="M31.6782 9.27405H36.8613C37.6 9.27405 38.1989 8.69744 38.1989 7.98615C38.1989 7.27485 37.6 6.69824 36.8613 6.69824H31.6782C30.9394 6.69824 30.3406 7.27485 30.3406 7.98615C30.3406 8.69744 30.9394 9.27405 31.6782 9.27405Z" fill="#C1AB65"/>
<path d="M45.405 6.69824H40.2219C39.4831 6.69824 38.8843 7.27485 38.8843 7.98615C38.8843 8.69744 39.4831 9.27405 40.2219 9.27405H45.405C46.1437 9.27405 46.7426 8.69744 46.7426 7.98615C46.7426 7.27485 46.1437 6.69824 45.405 6.69824Z" fill="#C1AB65"/>
<path d="M53.945 6.69824H48.7619C48.0232 6.69824 47.4243 7.27485 47.4243 7.98615C47.4243 8.69744 48.0232 9.27405 48.7619 9.27405H53.945C54.6837 9.27405 55.2826 8.69744 55.2826 7.98615C55.2826 7.27485 54.6839 6.69824 53.945 6.69824Z" fill="#C1AB65"/>
<path d="M11.2375 37.5337H6.05438C5.31565 37.5337 4.7168 38.1103 4.7168 38.8216C4.7168 39.5329 5.31565 40.1095 6.05438 40.1095H11.2375C11.9762 40.1095 12.5751 39.5329 12.5751 38.8216C12.5751 38.1103 11.9762 37.5337 11.2375 37.5337Z" fill="#C1AB65"/>
<path d="M19.7775 37.5337H14.5944C13.8557 37.5337 13.2568 38.1103 13.2568 38.8216C13.2568 39.5329 13.8557 40.1095 14.5944 40.1095H19.7775C20.5163 40.1095 21.1151 39.5329 21.1151 38.8216C21.1151 38.1103 20.5163 37.5337 19.7775 37.5337Z" fill="#C1AB65"/>
<path d="M28.3212 37.5337H23.1381C22.3994 37.5337 21.8005 38.1103 21.8005 38.8216C21.8005 39.5329 22.3994 40.1095 23.1381 40.1095H28.3212C29.06 40.1095 29.6588 39.5329 29.6588 38.8216C29.6588 38.1103 29.06 37.5337 28.3212 37.5337Z" fill="#C1AB65"/>
<path d="M36.8613 37.5337H31.6782C30.9394 37.5337 30.3406 38.1103 30.3406 38.8216C30.3406 39.5329 30.9394 40.1095 31.6782 40.1095H36.8613C37.6 40.1095 38.1989 39.5329 38.1989 38.8216C38.1989 38.1103 37.6 37.5337 36.8613 37.5337Z" fill="#C1AB65"/>
<path d="M45.405 37.5337H40.2219C39.4831 37.5337 38.8843 38.1103 38.8843 38.8216C38.8843 39.5329 39.4831 40.1095 40.2219 40.1095H45.405C46.1437 40.1095 46.7426 39.5329 46.7426 38.8216C46.7426 38.1103 46.1437 37.5337 45.405 37.5337Z" fill="#C1AB65"/>
<path d="M53.945 37.5337H48.7619C48.0232 37.5337 47.4243 38.1103 47.4243 38.8216C47.4243 39.5329 48.0232 40.1095 48.7619 40.1095H53.945C54.6837 40.1095 55.2826 39.5329 55.2826 38.8216C55.2826 38.1103 54.6839 37.5337 53.945 37.5337Z" fill="#C1AB65"/>
<path d="M24.433 13.6475C23.2345 13.6475 22.3645 14.5552 22.3645 15.8058V31.002C22.3645 32.2527 23.2345 33.1603 24.433 33.1603C24.8463 33.1603 25.2617 33.0499 25.6679 32.8322L39.8436 25.2339C40.6249 24.8152 41.073 24.1481 41.073 23.4039C41.073 22.6597 40.6249 21.9925 39.8436 21.5738L25.6679 13.9755C25.2617 13.7577 24.8463 13.6475 24.433 13.6475ZM25.0397 30.221L25.0402 16.5869L37.7579 23.4039L25.0397 30.221Z" fill="#C1AB65"/>
</svg>
