<svg width="50" height="60" viewBox="0 0 50 60" fill="none" xmlns="http://www.w3.org/2000/svg">
<g clip-path="url(#clip0)">
<path d="M45.5941 13.5051C45.1727 12.9436 44.6486 12.4814 44.0628 12.1392C43.7601 11.2939 43.2363 10.6511 42.8153 10.1362C42.5917 9.86283 42.3606 9.58021 42.2641 9.38889C42.2065 9.26647 42.1224 8.85617 42.0665 8.58485C41.869 7.62324 41.5986 6.30627 40.6375 5.37112C39.8422 4.59718 38.8931 4.4897 38.1303 4.40344C37.8163 4.36788 37.3862 4.3192 37.2481 4.23596C37.1431 4.15536 36.9015 3.81192 36.7416 3.58465C36.2678 2.91152 35.619 1.9895 34.6065 1.58829C33.6796 1.22102 32.7919 1.45677 32.0784 1.64566C31.7964 1.72041 31.3697 1.83354 31.2446 1.80728C31.1214 1.76102 30.8057 1.48869 30.5971 1.30849C29.9906 0.784652 29.2353 0.132935 28.2235 0.016571C27.2567 -0.0941361 26.4374 0.354551 25.7779 0.715359C25.5225 0.854955 25.1367 1.06627 25.003 1.07516C24.8629 1.06647 24.4767 0.854955 24.2212 0.715359C23.5618 0.354349 22.7404 -0.09353 21.7754 0.016773C20.7636 0.132935 20.0087 0.784854 19.4017 1.30869C19.1929 1.48889 18.8776 1.76102 18.7697 1.80304C18.6273 1.83334 18.2023 1.72041 17.9207 1.64566C17.207 1.45617 16.319 1.22162 15.3927 1.58829C14.3805 1.9893 13.7316 2.91132 13.2579 3.58445C13.098 3.81172 12.8565 4.15495 12.7653 4.22627C12.6129 4.31879 12.183 4.36748 11.8692 4.40304C11.1065 4.4891 10.1576 4.59677 9.36244 5.37031C8.40099 6.30586 8.13062 7.62283 7.93314 8.58445C7.87742 8.85596 7.79324 9.26607 7.73634 9.38667C7.63904 9.58001 7.40789 9.86243 7.18432 10.1358C6.76328 10.6505 6.23954 11.2935 5.93685 12.1388C5.35099 12.481 4.82691 12.943 4.40553 13.5047C3.62388 14.5465 3.25705 15.8451 3.3722 17.1612C4.20587 26.6762 9.80301 57.0869 10.0409 58.3768C10.2161 59.3253 10.9163 60 11.7254 60H38.2746C39.0837 60 39.7838 59.3253 39.9587 58.3772C40.1966 57.0873 45.7938 26.6766 46.6274 17.1616C46.7426 15.8455 46.3757 14.5471 45.5941 13.5051ZM10.688 11.5307C11.0143 10.8838 11.1572 10.1887 11.283 9.57516C11.3424 9.28627 11.4372 8.82526 11.522 8.62748C11.6818 8.58304 11.9826 8.54889 12.1929 8.52506C12.8146 8.45475 13.5885 8.36728 14.3247 7.9198C15.0209 7.49657 15.5047 6.80889 15.8937 6.25617C16.0665 6.01071 16.3205 5.6497 16.4596 5.53516C16.6155 5.5396 16.949 5.62809 17.1767 5.68829C17.8129 5.85738 18.6044 6.06728 19.4525 5.86142C20.2636 5.66485 20.9028 5.11334 21.4165 4.6697C21.6291 4.48627 21.9429 4.21536 22.0949 4.14607C22.2466 4.18506 22.5702 4.36223 22.7902 4.48243C23.387 4.8091 24.1298 5.21536 25 5.21536C25.87 5.21536 26.6128 4.80889 27.2096 4.48243C27.4294 4.36223 27.7527 4.18506 27.9042 4.14607C28.0565 4.21536 28.3702 4.48607 28.5826 4.6697C29.0963 5.11293 29.7353 5.66465 30.5461 5.86122C31.3939 6.06687 32.1858 5.85677 32.8224 5.68829C33.0503 5.62788 33.384 5.5394 33.54 5.53475C33.6791 5.6493 33.933 6.01031 34.1057 6.25576C34.4944 6.80849 34.9786 7.49617 35.6747 7.9196C36.4109 8.36687 37.1847 8.45455 37.8065 8.52485C38.0172 8.54869 38.3182 8.58283 38.4779 8.62728C38.5628 8.82526 38.6574 9.28607 38.7166 9.57495C38.8426 10.1883 38.9853 10.8836 39.3116 11.5305C39.3833 11.6725 39.4599 11.8071 39.5394 11.936C39.0771 12.161 38.651 12.459 38.2744 12.8176C37.3869 11.9721 36.2254 11.4596 34.9557 11.4596C33.6862 11.4596 32.5246 11.9723 31.637 12.8176C30.7496 11.9723 29.588 11.4596 28.3185 11.4596C27.0488 11.4596 25.8874 11.9721 24.9998 12.8176C24.1123 11.9721 22.9508 11.4596 21.6811 11.4596C20.4116 11.4596 19.25 11.9723 18.3626 12.8176C17.4751 11.9723 16.3134 11.4596 15.0439 11.4596C13.7742 11.4596 12.6128 11.9721 11.7252 12.8176C11.3488 12.459 10.9227 12.1612 10.4602 11.936C10.5399 11.8073 10.6165 11.6729 10.688 11.5307ZM25 40.8937C18.6407 40.8937 14.736 37.8863 14.736 35.7301C14.736 33.5737 18.6407 30.5663 25 30.5663C31.3594 30.5663 35.2643 33.5737 35.2643 35.7301C35.2643 37.8863 31.3594 40.8937 25 40.8937ZM16.6379 16.9453L17.3874 27.9024C16.4365 28.3174 15.5732 28.8101 14.8156 29.3713L13.4503 16.9455C13.4503 16.2287 14.1951 15.6 15.0441 15.6C15.8931 15.5998 16.6379 16.2285 16.6379 16.9453ZM23.2751 16.9453L23.3613 26.4885C22.4062 26.559 21.487 26.6911 20.6111 26.8788L20.0877 16.9453C20.0877 16.2285 20.8325 15.5998 21.6813 15.5998C22.5303 15.5998 23.2751 16.2285 23.2751 16.9453ZM36.5496 16.9453L35.1843 29.3709C34.4269 28.8097 33.5634 28.3172 32.6126 27.9022L33.3621 16.9453C33.3621 16.2285 34.1069 15.5998 34.9559 15.5998C35.8049 15.5998 36.5496 16.2285 36.5496 16.9453ZM29.9123 16.9453L29.3889 26.8788C28.5129 26.6909 27.5939 26.559 26.6387 26.4885L26.7249 16.9453C26.7249 16.2285 27.4697 15.5998 28.3187 15.5998C29.1675 15.5998 29.9123 16.2285 29.9123 16.9453ZM10.0005 16.9453L11.9084 32.8459C11.5039 33.7469 11.286 34.7141 11.286 35.7299C11.286 37.3012 11.8069 38.7564 12.7384 40.0287L14.5678 55.8602H13.1129C11.9202 49.3063 7.50924 24.7836 6.80351 16.7287C6.79139 16.5909 6.84729 16.4382 6.96968 16.2754C7.27759 15.8651 7.84156 15.5998 8.40671 15.5998C9.2557 15.5998 10.0005 16.2285 10.0005 16.9453ZM17.8767 55.8602L16.4001 43.0812C17.0128 43.4065 17.668 43.6976 18.3651 43.9475L19.0911 55.8602H17.8767ZM22.3771 55.8602L21.702 44.7824C22.2416 44.8663 22.7951 44.9297 23.3613 44.9715V55.8602H22.3771ZM26.6387 55.8602V44.9715C27.2049 44.9297 27.7584 44.8663 28.298 44.7824L27.6229 55.8602H26.6387ZM30.9091 55.8602L31.635 43.9477C32.3323 43.6978 32.9875 43.4065 33.6 43.0814L32.1234 55.8604H30.9091V55.8602ZM39.9995 16.9453C39.9995 16.2285 40.7443 15.5998 41.5932 15.5998C42.1584 15.5998 42.7224 15.8651 43.0303 16.2754C43.1525 16.4384 43.2086 16.5909 43.1964 16.7287C42.4907 24.7834 38.0798 49.3063 36.887 55.8602H35.4321L37.2614 40.0293C38.1932 38.757 38.7141 37.3014 38.7141 35.7301C38.7141 34.7141 38.4961 33.7469 38.0916 32.8455L39.9995 16.9453Z" fill="#C1AB65"/>
</g>
<defs>
<clipPath id="clip0">
<rect width="50" height="60" fill="white"/>
</clipPath>
</defs>
</svg>
