<?xml version="1.0" encoding="iso-8859-1"?>
<!-- Generator: Adobe Illustrator 19.0.0, SVG Export Plug-In . SVG Version: 6.00 Build 0)  -->
<svg version="1.1" id="Capa_1" xmlns="http://www.w3.org/2000/svg" xmlns:xlink="http://www.w3.org/1999/xlink" x="0px" y="0px"
	 viewBox="0 0 512 512" style="enable-background:new 0 0 512 512;" xml:space="preserve">
<g>
	<g>
		<path d="M208,208h-16v32h16c8.832,0,16-7.168,16-16C224,215.168,216.832,208,208,208z"/>
	</g>
</g>
<g>
	<g>
		<path d="M256,0C114.848,0,0,114.848,0,256s114.848,256,256,256s256-114.848,256-256S397.152,0,256,0z M120.224,120.224
			C156.512,83.968,204.704,64,256,64s99.488,19.968,135.744,56.224c6.24,6.24,6.24,16.384,0,22.624s-16.384,6.24-22.624,0
			C338.912,112.64,298.72,96,256,96c-42.72,0-82.912,16.64-113.152,46.848c-3.104,3.136-7.2,4.704-11.296,4.704
			s-8.192-1.568-11.328-4.704C113.984,136.608,113.984,126.496,120.224,120.224z M336,240c8.832,0,16,7.168,16,16
			c0,8.832-7.168,16-16,16h-16v32h16c8.832,0,16,7.168,16,16c0,8.832-7.168,16-16,16h-32c-8.832,0-16-7.168-16-16V192
			c0-8.832,7.168-16,16-16h32c8.832,0,16,7.168,16,16c0,8.832-7.168,16-16,16h-16v32H336z M252.8,310.4
			c5.312,7.072,3.872,17.088-3.2,22.4c-2.88,2.144-6.24,3.2-9.568,3.2c-4.864,0-9.664-2.208-12.8-6.4L192,282.656V320
			c0,8.832-7.168,16-16,16c-8.832,0-16-7.168-16-16V192c0-8.832,7.168-16,16-16h32c26.464,0,48,21.536,48,48
			c0,21.504-14.304,39.52-33.792,45.6L252.8,310.4z M96,272v48c0,8.832-7.168,16-16,16c-8.832,0-16-7.168-16-16V192
			c0-8.832,7.168-16,16-16h32c8.832,0,16,7.168,16,16c0,8.832-7.168,16-16,16H96v32h16c8.832,0,16,7.168,16,16
			c0,8.832-7.168,16-16,16H96z M391.744,391.744C355.488,428.032,307.296,448,256,448c-51.296,0-99.488-19.968-135.776-56.256
			c-6.24-6.24-6.24-16.384,0-22.624s16.384-6.24,22.624,0C173.088,399.328,213.28,416,256,416c42.72,0,82.912-16.672,113.12-46.88
			c6.24-6.24,16.384-6.24,22.624,0S398.016,385.504,391.744,391.744z M432,304c8.832,0,16,7.168,16,16c0,8.832-7.168,16-16,16h-32
			c-8.832,0-16-7.168-16-16V192c0-8.832,7.168-16,16-16h32c8.832,0,16,7.168,16,16c0,8.832-7.168,16-16,16h-16v32h16
			c8.832,0,16,7.168,16,16c0,8.832-7.168,16-16,16h-16v32H432z"/>
	</g>
</g>
<g>
</g>
<g>
</g>
<g>
</g>
<g>
</g>
<g>
</g>
<g>
</g>
<g>
</g>
<g>
</g>
<g>
</g>
<g>
</g>
<g>
</g>
<g>
</g>
<g>
</g>
<g>
</g>
<g>
</g>
</svg>
