<svg xmlns="http://www.w3.org/2000/svg" width="500" height="500" viewBox="0 0 500 500">
  <metadata><?xpacket begin="﻿" id="W5M0MpCehiHzreSzNTczkc9d"?>
<x:xmpmeta xmlns:x="adobe:ns:meta/" x:xmptk="Adobe XMP Core 5.6-c142 79.160924, 2017/07/13-01:06:39        ">
   <rdf:RDF xmlns:rdf="http://www.w3.org/1999/02/22-rdf-syntax-ns#">
      <rdf:Description rdf:about=""/>
   </rdf:RDF>
</x:xmpmeta>
                                                                                                    
                                                                                                    
                                                                                                    
                                                                                                    
                                                                                                    
                                                                                                    
                                                                                                    
                                                                                                    
                                                                                                    
                                                                                                    
                                                                                                    
                                                                                                    
                                                                                                    
                                                                                                    
                                                                                                    
                                                                                                    
                                                                                                    
                                                                                                    
                                                                                                    
                                                                                                    
                           
<?xpacket end="w"?></metadata>
<defs>
    <style>
      .cls-1 {
        fill: #a3ffee;
      }

      .cls-1, .cls-2 {
        fill-rule: evenodd;
      }

      .cls-2 {
        fill: #fff;
      }
    </style>
  </defs>
  <path id="Заливка_цветом_1" data-name="Заливка цветом 1" class="cls-1" d="M461,177h0c2.333,24.331,5.382,50.334,8,74Q250.522,273.5,32,297c-2.1-25.559-4.53-50.753-7-76h0C166.986,206.668,319.014,191.332,461,177Z"/>
  <path id="Заливка_цветом_3" data-name="Заливка цветом 3" class="cls-2" d="M133.068,276.716a8.677,8.677,0,0,1-2.063-.438c-0.825-5.848-2.063-11.4-2.063-17.251V256.1c0-6.579-3.439-18.42-6.878-18.42-1.925,0-8.8,11.987-12.379,17.835-3.3,5.263-8.115,16.665-12.1,17.981a7.574,7.574,0,0,1-.55-1.9c2.338-21.929,5.5-43.857,6.465-65.931V204.5c0-3.216-.963-5.409-5.227-5.409-5.915.731-9.216,4.678-9.216,11.257,0,9.794-1.1,19.3-1.376,29.237L84.651,292.8c0,5.263,1.788,8.479,5.089,8.479,8.253,0,14.993-23.683,20.495-36.84,0.688-1.608,2.614-2.485,4.127-3.654,0.825,1.608,2.2,3.07,2.2,4.97,0,1.17-.137,2.339-0.137,3.509,0,15.349,3.3,30.407,5.915,45.464,0.825,3.217,2.751,8.187,5.914,8.187,3.3,0,6.74-7.456,7.565-11.695,3.439-17.981,6.328-36.109,9.629-54.09,3.163-15.057,6.327-29.969,9.628-44.88l7.978-31.284v-0.585a18.828,18.828,0,0,0-.413-2.485c-0.825.584-2.063,1.023-2.475,1.9-2.476,6.579-5.5,13.3-7.841,20.028C143.522,224.673,138.845,250.841,133.068,276.716Zm24.483,9.8c0.55,6.725,1.1,16.665,11.692,16.665,5.227,0,13.755-4.678,13.755-10.671a2.024,2.024,0,0,0-2.339-2.193c-2.751,0-5.227,1.608-7.978,1.608-4.539,0-4.126-4.093-4.126-6.871,0-7.456,7.015-9.5,10.316-15.2,2.614-4.678,7.428-11.841,7.428-16.957a8.02,8.02,0,0,0-8.391-8.333C164.428,244.555,157.826,271.307,157.551,286.511ZM181.072,256.1c-2.063,3.362-5.089,10.525-7.153,10.525a2.509,2.509,0,0,1-1.65-1.9c0-.146.137-0.146,0.137-0.293,1.1-3.362,3.026-11.695,6.052-11.695C179.284,252.741,180.109,254.788,181.072,256.1Zm49.517,3.508c0-1.462.137-2.924,0.137-4.385,0-5.117-2.178-8.333-5.853-8.333-3.13,0-4.764,2.193-7.214,3.947-1.361,1.023-2.994,1.9-4.355,3.07a21.724,21.724,0,0,1-.953-4.824,2.663,2.663,0,0,1,.136-1.024c2.314-13.3,6.942-20.028,8.031-38.74,0-3.362-2.314-6.14-4.492-6.14-6.941,0-10.752,8.333-10.752,16.227,0,2.924.952,4.971,0.952,7.31a17.264,17.264,0,0,1-.272,2.631c-1.225,7.748-2.722,7.748-3.947,15.642-1.633,10.526-3.4,21.2-4.763,31.869-1.089,6.14-2.723,12.865-2.723,18.859,0,3.07,1.906,5.116,3.675,5.116,2.45,0,6.125-5.847,6.669-8.917a96.869,96.869,0,0,1,15.38-36.109c1.089-1.315,2.859-1.9,4.22-2.631,0.68,1.754,1.633,3.216,1.633,4.678,0,10.379-4.083,20.028-8.575,28.653-1.225,2.485-8.166,2.485-8.03,5.409,0.136,2.778,1.361,5.409,1.769,8.186,2.723-1.169,6.534-2.192,8.167-4.824C226.37,284.61,230.453,272.915,230.589,259.612Zm90.1-56.867a5.083,5.083,0,0,0,1.5-3.509c0-3.07-2.858-5.116-6.533-5.116a4.326,4.326,0,0,0-1.361.146c-21.641,3.07-42.874,7.309-64.651,11.549-2.45.438-5.308,1.315-5.308,4.239,0,3.509,2.042,4.386,3.811,4.386,1.5,0,3.131-.877,4.356-0.877,0.816,0,2.722,2.631,2.722,3.07v0.146c-1.089,7.6-2.722,14.911-3.539,22.367-0.681,5.263-1.905,9.356-7.486,10.233-1.089.146-2.041,1.9-2.586,3.216,0,2.778,6.4,2.047,6.4,6.579a8.946,8.946,0,0,1-.136,1.9c-1.361,8.771-2.45,17.689-3.675,27.191,0.953,3.8,1.906,14.911,5.172,14.911,4.628,0,7.078-29.968,8.983-45.026,0.681-4.093,2.178-6.286,6.261-7.017,6.125-1.023,13.747-2.485,19.055-5.7-1.225-.877-2.178-1.9-3.131-1.9-5.172,0-10.344,1.17-15.243,1.17-2.586,0-3.539-1.023-3.539-3.509a23.133,23.133,0,0,1,.408-3.8c1.5-8.04,2.586-26.021,7.214-27.191,11.433-2.777,23.274-4.97,34.979-7.455h0.68a3.045,3.045,0,0,1,2.45,1.023c0.273,0.439,5.853,5.263,9.664,5.263C319.328,209.031,320.689,207.423,320.689,202.745ZM311.323,290.9c0.688,4.97,1.65,9.94,5.364,9.94,6.465,0,12.517-12.718,12.517-19.15,0-1.024-2.063-2.778-2.338-2.632a6.421,6.421,0,0,1-2.063.439c-1.238,0-1.513-.731-1.513-1.9a19.411,19.411,0,0,1,.412-2.777c3.439-22.952,7.841-45.319,11.967-68.27,0-4.094-.825-7.748-4.4-8.187-5.089,0-6.052,11.549-7.152,17.25C319.3,240.461,313.8,265.606,311.323,290.9Zm29.846-9.941c0,12.133,3.989,19.3,10.041,19.3,9.354,0,17.332-18.128,17.332-32.454,0-5.555-.413-13.011-4.264-17.1-1.513,1.608-2.339,1.608-2.339,3.947,0,3.362,1.376,6.578,1.376,9.648,0,8.041-3.026,17.4-6.327,25.291-0.551,1.608-3.164,2.485-4.952,3.8-0.826-2.047-2.476-4.532-2.476-6.579,0-8.771,3.164-20.174,8.665-27.191a3.875,3.875,0,0,0,.688-2.339,4.016,4.016,0,0,0-4.126-3.8C346.4,253.472,341.72,274.085,341.169,280.956Zm93.12-45.026c-0.413,0-.825-0.147-1.238-0.147-5.227,17.543-9.766,35.378-15.131,52.775-0.55,1.608-3.026,2.777-4.4,4.093-3.164-5.555-3.3-9.21-3.3-14.18a84.673,84.673,0,0,1,2.338-18.566,27.24,27.24,0,0,0,.963-5.848c0-1.9-1.1-4.678-4.4-4.678-4.539,0-11.141,11.11-15.955,16.519-0.551.585-1.789,0.585-2.614,1.024-0.275-1.024-.963-2.047-0.963-3.217,0-2.923.688-5.993,0.688-8.917,0-3.216-1.1-5.994-4.677-5.994-4.951.439-6.464,3.216-6.464,11.111,0,8.04-1.1,15.934-.826,23.975,0,3.07.413,6.286,3.714,8.478a0.474,0.474,0,0,0,.275.147c5.777,0,12.1-15.058,17.331-22.806,0.688-1.315,2.476-1.608,3.852-2.339a21.62,21.62,0,0,1,.825,4.093c-0.275,3.07-.55,5.994-0.55,8.772,0,7.6,3.163,21.343,9.491,21.343,3.851,0,9.9-6.87,11.416-12.426,4.127-12.718,10.041-28.653,10.041-41.079C434.7,244.116,434.289,240.023,434.289,235.93Z"/>
</svg>
